<?xml version="1.0" encoding="UTF-8"?>
<svg xmlns="http://www.w3.org/2000/svg" xmlns:xlink="http://www.w3.org/1999/xlink" width="150pt" height="119pt" viewBox="0 0 150 119" version="1.1">
<g id="surface1">
<path style=" stroke:none;fill-rule:evenodd;fill:rgb(0%,0%,0%);fill-opacity:1;" d="M 150 75.15625 C 150 58.625 137.1875 45.21875 120.9375 44.09375 C 116.6875 22.484375 97.75 6.261719 75 6.261719 C 66.6875 6.261719 58.9375 8.519531 52.1875 12.339844 L 61.5 21.671875 C 65.6875 19.855469 70.1875 18.789062 75 18.789062 C 94 18.789062 109.375 34.195312 109.375 53.238281 L 109.375 56.367188 L 118.75 56.367188 C 129.125 56.367188 137.5 64.761719 137.5 75.15625 C 137.5 81.359375 134.5 86.746094 129.9375 90.191406 L 138.75 99.019531 C 145.5625 93.257812 150 84.804688 150 75.15625 Z M 27.5625 5.386719 L 18.75 14.21875 L 36.0625 31.566406 L 33.4375 31.566406 C 14.625 33.570312 0 49.542969 0 68.894531 C 0 89.625 16.8125 106.472656 37.5 106.472656 L 110.8125 106.472656 L 123.3125 119 L 132.125 110.167969 Z M 37.5 93.949219 C 23.6875 93.949219 12.5 82.734375 12.5 68.894531 C 12.5 55.054688 23.6875 43.84375 37.5 43.84375 L 48.3125 43.84375 L 98.3125 93.949219 Z M 37.5 93.949219 "/>
</g>
</svg>
